<?xml version="1.0" encoding="UTF-8" standalone="no"?>
<!-- Created with Inkscape (http://www.inkscape.org/) -->

<svg
   xmlns:dc="http://purl.org/dc/elements/1.1/"
   xmlns:cc="http://creativecommons.org/ns#"
   xmlns:rdf="http://www.w3.org/1999/02/22-rdf-syntax-ns#"
   xmlns:svg="http://www.w3.org/2000/svg"
   xmlns="http://www.w3.org/2000/svg"
   xmlns:sodipodi="http://sodipodi.sourceforge.net/DTD/sodipodi-0.dtd"
   xmlns:inkscape="http://www.inkscape.org/namespaces/inkscape"
   width="157.15649"
   height="201.00194"
   id="svg5845"
   version="1.1"
   inkscape:version="0.48.0 r9654"
   sodipodi:docname="New document 28">
  <defs
     id="defs5847" />
  <sodipodi:namedview
     id="base"
     pagecolor="#ffffff"
     bordercolor="#666666"
     borderopacity="1.0"
     inkscape:pageopacity="0.0"
     inkscape:pageshadow="2"
     inkscape:zoom="0.35"
     inkscape:cx="-389.2789"
     inkscape:cy="-5.2059326"
     inkscape:document-units="px"
     inkscape:current-layer="layer1"
     showgrid="false"
     fit-margin-top="0"
     fit-margin-left="0"
     fit-margin-right="0"
     fit-margin-bottom="0"
     inkscape:window-width="496"
     inkscape:window-height="441"
     inkscape:window-x="4"
     inkscape:window-y="73"
     inkscape:window-maximized="0" />
  <metadata
     id="metadata5850">
    <rdf:RDF>
      <cc:Work
         rdf:about="">
        <dc:format>image/svg+xml</dc:format>
        <dc:type
           rdf:resource="http://purl.org/dc/dcmitype/StillImage" />
        <dc:title></dc:title>
      </cc:Work>
    </rdf:RDF>
  </metadata>
  <g
     inkscape:label="Layer 1"
     inkscape:groupmode="layer"
     id="layer1"
     transform="translate(-764.2789,-326.15431)">
    <path
       sodipodi:nodetypes="sczcs"
       inkscape:connector-curvature="0"
       id="path5345"
       d="m 878.37199,396.19722 c -8.51392,5.5867 -9.50124,23.05968 -2.21372,39.17705 12.95673,28.76065 35.51015,52.83349 41.91596,48.63009 6.40581,-4.20341 4.16966,-34.85127 -11.17979,-68.79875 -7.28751,-16.11737 -20.00853,-24.59511 -28.52245,-19.00839 z"
       style="fill:#000000;fill-opacity:1;stroke:none" />
    <path
       style="fill:#000000;fill-opacity:1;stroke:none"
       d="m 807.3423,396.19722 c 8.51392,5.5867 9.50124,23.05968 2.21372,39.17705 -12.95673,28.76065 -35.51015,52.83349 -41.91596,48.63009 -6.40581,-4.20341 -4.16966,-34.85127 11.17979,-68.79875 7.28751,-16.11737 20.00853,-24.59511 28.52245,-19.00839 z"
       id="rect5342"
       inkscape:connector-curvature="0"
       sodipodi:nodetypes="sczcs" />
    <path
       style="fill:#000000;stroke:none"
       d="m 842.49113,326.15431 c -26.50277,0 -43.9552,20.11565 -44.875,45.4375 0,0 -0.0303,-0.0104 -0.0312,0 -1.37359,15.90267 -7.79032,26.78287 -10.40625,42.0625 -13.55695,79.18596 -0.1875,79.07307 10.8125,102 29.33333,-5.36618 58.66667,-6.1266 88,0 0,0 37.19752,-27.46913 11,-101.5 -5.78568,-10.92301 -6.49267,-28.35802 -9.62495,-42.5625 -5.22029,-23.67334 -18.37223,-45.4375 -44.875,-45.4375 z"
       id="rect5259"
       inkscape:connector-curvature="0"
       sodipodi:nodetypes="scsscccsss" />
    <path
       style="fill:#ffffff;stroke:none"
       d="m 890.60826,451.64149 c 0,30.47 -10.927,39 -24.5,39 l -46,0 c -13.573,0 -24.5,-8.53 -24.5,-39 0,-30.47 10.927,-55 24.5,-55 l 46,0 c 13.573,0 24.5,24.53 24.5,55 z"
       id="rect5265"
       inkscape:connector-curvature="0"
       sodipodi:nodetypes="sssssss" />
    <g
       transform="matrix(0.9930942,0,0,0.95723115,458.16356,1158.3619)"
       id="g5267">
      <rect
         rx="10"
         ry="18"
         y="-841.63782"
         x="392"
         height="36"
         width="20"
         id="rect5269"
         style="fill:#ffffff;fill-opacity:1;stroke:none" />
      <rect
         style="fill:#ffffff;fill-opacity:1;stroke:none"
         id="rect5271"
         width="20"
         height="36"
         x="362"
         y="-841.63782"
         ry="18"
         rx="10" />
    </g>
    <path
       sodipodi:nodetypes="sssss"
       inkscape:connector-curvature="0"
       id="path5273"
       d="m 875.26311,386.70169 c 0,8.72297 -14.67258,19.62325 -32.77211,19.62325 -18.09954,0 -32.77211,-10.90028 -32.77211,-19.62325 0,-8.72294 14.67257,-11.96538 32.77211,-11.96538 18.09953,0 32.77211,3.24244 32.77211,11.96538 z"
       style="fill:#ecb63a;fill-opacity:1;stroke:none" />
    <path
       inkscape:connector-curvature="0"
       id="path5275"
       d="m 815.73952,387.29458 c 3.55834,6.16026 13.97047,12.15028 26.25493,12.15028 12.28447,0 22.69659,-5.99002 26.25493,-12.15028 -5.30447,4.86543 -15.07294,8.93032 -26.25493,8.93032 -11.18199,0 -20.95046,-4.06489 -26.25493,-8.93032 z"
       style="fill:#876108;fill-opacity:1;stroke:none" />
    <rect
       rx="6.6206274"
       ry="7.6578493"
       y="363.24945"
       x="850.76685"
       height="15.315699"
       width="13.241254"
       id="rect5277"
       style="fill:#000000;fill-opacity:1;stroke:none" />
    <rect
       style="fill:#000000;fill-opacity:1;stroke:none"
       id="rect5279"
       width="13.241254"
       height="15.315699"
       x="820.97394"
       y="363.24945"
       ry="7.6578493"
       rx="6.6206274" />
    <g
       transform="translate(272.99113,1153.7793)"
       id="g5416">
      <path
         sodipodi:nodetypes="sssss"
         inkscape:connector-curvature="0"
         id="path5347"
         d="m 574.38561,-641.24281 c 0,-7.86496 -14.72344,-17.69305 -32.88574,-17.69305 -18.1623,0 -32.88574,9.82809 -32.88574,17.69305 0,7.86493 14.72344,10.78844 32.88574,10.78844 18.1623,0 32.88574,-2.92351 32.88574,-10.78844 z"
         style="fill:#ecb63a;fill-opacity:1;stroke:none" />
      <path
         inkscape:connector-curvature="0"
         id="path5352"
         d="m 569.27488,-644.625 c -1.1416,2.94429 -4.54665,6.17319 -8.9783,7.10756 -3.55015,0.7485 -6.90438,-0.17246 -9.09833,-1.73425 -1.9547,1.77298 -4.93095,3.12732 -8.25813,3.12732 -3.02043,0 -5.74243,-1.11375 -7.68196,-2.644 -2.08835,1.8756 -5.59239,3.13505 -9.38641,2.58714 -4.5417,-0.65587 -8.1424,-3.72491 -9.3624,-6.62423 -0.22081,0.36638 -0.38332,0.77713 -0.43211,1.25092 -0.34341,3.33524 3.95102,8.16851 9.79451,9.01239 3.79402,0.5479 7.29806,-0.71155 9.38641,-2.58715 1.93953,1.53025 4.66153,2.644 7.68196,2.644 3.32718,0 6.30343,-1.35434 8.25813,-3.12732 2.19395,1.56181 5.54818,2.48275 9.09833,1.73425 5.79562,-1.22195 9.85967,-6.35837 9.36239,-9.66628 -0.0604,-0.40239 -0.20095,-0.76671 -0.38409,-1.08035 z"
         style="fill:#926a0d;fill-opacity:1;stroke:none" />
      <path
         style="fill:#ecb63a;fill-opacity:1;stroke:none"
         d="m 632.38561,-641.24281 c 0,-7.86496 -14.72344,-17.69305 -32.88574,-17.69305 -18.1623,0 -32.88574,9.82809 -32.88574,17.69305 0,7.86493 14.72344,10.78844 32.88574,10.78844 18.1623,0 32.88574,-2.92351 32.88574,-10.78844 z"
         id="path5408"
         inkscape:connector-curvature="0"
         sodipodi:nodetypes="sssss" />
      <path
         style="fill:#926a0d;fill-opacity:1;stroke:none"
         d="m 627.27488,-644.625 c -1.1416,2.94429 -4.54665,6.17319 -8.9783,7.10756 -3.55015,0.7485 -6.90438,-0.17246 -9.09833,-1.73425 -1.9547,1.77298 -4.93095,3.12732 -8.25813,3.12732 -3.02043,0 -5.74243,-1.11375 -7.68196,-2.644 -2.08835,1.8756 -5.59239,3.13505 -9.38641,2.58714 -4.5417,-0.65587 -8.1424,-3.72491 -9.3624,-6.62423 -0.22081,0.36638 -0.38332,0.77713 -0.43211,1.25092 -0.34341,3.33524 3.95102,8.16851 9.79451,9.01239 3.79402,0.5479 7.29806,-0.71155 9.38641,-2.58715 1.93953,1.53025 4.66153,2.644 7.68196,2.644 3.32718,0 6.30343,-1.35434 8.25813,-3.12732 2.19395,1.56181 5.54818,2.48275 9.09833,1.73425 5.79562,-1.22195 9.85967,-6.35837 9.36239,-9.66628 -0.0604,-0.40239 -0.20095,-0.76671 -0.38409,-1.08035 z"
         id="path5410"
         inkscape:connector-curvature="0" />
    </g>
  </g>
</svg>
