<?xml version="1.0" encoding="ISO-8859-1" standalone="no"?>
<!DOCTYPE svg PUBLIC "-//W3C//DTD SVG 20010904//EN"
    "http://www.w3.org/TR/2001/REC-SVG-20010904/DTD/svg10.dtd">

<svg xmlns="http://www.w3.org/2000/svg"
     xmlns:xlink="http://www.w3.org/1999/xlink" xml:space="preserve"
     width="400px" height="400px" >
<!--
     viewBox="0 0 400 400"
     zoomAndPan="disable" >
-->	 
  <!-- SVG code goes here -->

  <!-- paths -->
  <defs>
    <path id="t1"
	d="M 200 200
           A 100,100 0 0,0 75,325"
	stroke-dasharray="5,2"
	style="fill: none; stroke: gray;" />

    <path id="t2"
	d="M 200 200
           A 100,100 0 0,0 200,325"
	stroke-dasharray="5,2"
	style="fill: none; stroke: gray;" />

    <path id="t3"
	d="M 200 200
           A 100,100 0 0,1 325,325"
	stroke-dasharray="5,2"
	style="fill: none; stroke: gray;" />
  </defs>


  <!-- graphics box -->
  <rect x="0" y="0" rx="0" ry="0" width="400" height="400" stroke="black" fill="none" />

  <!-- título -->
  <text fill="purple" font-size="20">
    <tspan x="200" y="62" text-anchor="middle" font-size="20">Reconocimiento de formas</tspan>
    <tspan x="200" y="87" text-anchor="middle" font-size="20">Aplicaciones Multimedia</tspan>
  </text>

  <rect x="25" y="25" width="30" height="90" fill="midnightblue" />
  <text stroke="white" fill="silver" font-weight="bold" >
    <tspan x="40" y="50" text-anchor="middle" font-size="20">A</tspan>
    <tspan x="40" y="75" text-anchor="middle" font-size="20">M</tspan>
    <tspan x="40" y="100" text-anchor="middle" font-size="20">M</tspan>
  </text>

  <rect x="345" y="25" width="30" height="90" fill="darkred" />
  <text stroke="white" fill="silver" font-weight="bold" >
    <tspan x="360" y="50" text-anchor="middle" font-size="18">S</tspan>
    <tspan x="360" y="75" text-anchor="middle" font-size="18">V</tspan>
    <tspan x="360" y="100" text-anchor="middle" font-size="18">G</tspan>
  </text>

  <!-- figura central -->
  <circle cx="50%" cy="50%" r="50" fill="green"/>

  <!-- moldes -->

  <g id="molde1" fill="red" >  
  <rect x="15" y="265" width="120" height="120" fill="red" />
  <circle cx="75" cy="325" r="50" fill="white" opacity="0.7" />
  </g>

  <g id="molde2" fill="red" >  
  <rect x="140" y="265" width="120" height="120" fill="yellow" />
  <rect x="150" y="275" width="100" height="100" fill="white" opacity="0.7" />
  </g>

  <g id="molde2" fill="red" >  
  <rect x="265" y="265" width="120" height="120" fill="blue" />
  <polygon points="275,375 325,275 375,375"  fill="white" opacity="0.7" />
  </g>

  <!-- trayectorias de animación -->
  <use xlink:href="#t1" fill="none" stroke="gray"  /> 
  <use xlink:href="#t2" fill="none" stroke="gray"  /> 
  <use xlink:href="#t3" fill="none" stroke="gray"  /> 


</svg>
